<svg width="40" height="54" viewBox="0 0 40 54" fill="none" xmlns="http://www.w3.org/2000/svg">
<path d="M25.2361 26.5003L0 12V41.14L25.2361 26.5003Z" fill="#35D32F"/>
<path d="M10.0713 26.0642C10.0713 24.2364 10.4189 22.5117 11.1139 20.8899C11.809 19.2681 12.7615 17.8522 13.9714 16.6423C15.1813 15.4324 16.5972 14.4799 18.219 13.7848C19.8408 13.0898 21.5656 12.7422 23.3933 12.7422C25.2468 12.7422 26.9716 13.0898 28.5676 13.7848C30.1894 14.4799 31.6053 15.4324 32.8152 16.6423C34.0251 17.8522 34.9776 19.2681 35.6727 20.8899C36.3677 22.5117 36.7153 24.2364 36.7153 26.0642C36.7153 27.9177 36.3677 29.6553 35.6727 31.2771C34.9776 32.8732 34.0251 34.2762 32.8152 35.4861C31.6053 36.696 30.1894 37.6485 28.5676 38.3436C26.9716 39.0386 25.2468 39.3861 23.3933 39.3861C21.5656 39.3861 19.8408 39.0386 18.219 38.3436C16.5972 37.6485 15.1813 36.696 13.9714 35.4861C12.7615 34.2762 11.809 32.8732 11.1139 31.2771C10.4189 29.6553 10.0713 27.9177 10.0713 26.0642ZM13.5466 26.0642C13.5466 27.4286 13.8041 28.7286 14.3189 29.9642C14.8338 31.1742 15.5417 32.2425 16.4427 33.1692C17.3437 34.0702 18.3863 34.791 19.5705 35.3316C20.7804 35.8465 22.0547 36.1039 23.3933 36.1039C24.7577 36.1039 26.032 35.8465 27.2161 35.3316C28.4003 34.791 29.4429 34.0702 30.3439 33.1692C31.2449 32.2425 31.9528 31.1742 32.4677 29.9642C32.9825 28.7286 33.24 27.4286 33.24 26.0642C33.24 24.6998 32.9825 23.4127 32.4677 22.2027C31.9528 20.9671 31.2449 19.8988 30.3439 18.9978C29.4429 18.071 28.4003 17.3502 27.2161 16.8354C26.032 16.2947 24.7577 16.0244 23.3933 16.0244C22.0547 16.0244 20.7804 16.2947 19.5705 16.8354C18.3863 17.3502 17.3437 18.071 16.4427 18.9978C15.5417 19.8988 14.8338 20.9671 14.3189 22.2027C13.8041 23.4127 13.5466 24.6998 13.5466 26.0642Z" fill="white"/>
<path d="M11.1139 20.8899L11.4881 21.0502L11.1139 20.8899ZM13.9714 16.6423L13.6836 16.3545L13.9714 16.6423ZM18.219 13.7848L18.0586 13.4107H18.0586L18.219 13.7848ZM28.5676 13.7848L28.4051 14.158L28.4073 14.1589L28.5676 13.7848ZM32.8152 16.6423L33.103 16.3545L32.8152 16.6423ZM35.6727 20.8899L36.0468 20.7295L35.6727 20.8899ZM35.6727 31.2771L36.0459 31.4396L36.0468 31.4375L35.6727 31.2771ZM32.8152 35.4861L33.103 35.7739L32.8152 35.4861ZM28.5676 38.3436L28.4073 37.9694L28.4051 37.9704L28.5676 38.3436ZM18.219 38.3436L18.0586 38.7177L18.219 38.3436ZM13.9714 35.4861L13.6836 35.7739L13.9714 35.4861ZM11.1139 31.2771L10.7398 31.4375L10.7407 31.4396L11.1139 31.2771ZM14.3189 29.9642L13.9432 30.1208L13.9444 30.1236L14.3189 29.9642ZM16.4427 33.1692L16.1508 33.453L16.1549 33.457L16.4427 33.1692ZM19.5705 35.3316L19.4014 35.702L19.4111 35.7062L19.5705 35.3316ZM27.2161 35.3316L27.3784 35.705L27.3852 35.7019L27.2161 35.3316ZM30.3439 33.1692L30.6317 33.4571L30.6357 33.453L30.3439 33.1692ZM32.4677 29.9642L32.8422 30.1236L32.8434 30.1208L32.4677 29.9642ZM32.4677 22.2027L32.0919 22.3593L32.0931 22.3621L32.4677 22.2027ZM30.3439 18.9978L30.052 19.2815L30.0561 19.2856L30.3439 18.9978ZM27.2161 16.8354L27.0471 17.2057L27.0538 17.2086L27.2161 16.8354ZM19.5705 16.8354L19.7328 17.2086L19.7365 17.207L19.5705 16.8354ZM16.4427 18.9978L16.7306 19.2856L16.7346 19.2815L16.4427 18.9978ZM14.3189 22.2027L14.6935 22.3621L14.6946 22.3593L14.3189 22.2027ZM10.4784 26.0642C10.4784 24.2895 10.8155 22.6195 11.4881 21.0502L10.7398 20.7295C10.0223 22.4038 9.66431 24.1833 9.66431 26.0642H10.4784ZM11.4881 21.0502C12.1634 19.4745 13.0871 18.1022 14.2592 16.9301L13.6836 16.3545C12.4359 17.6021 11.4546 19.0616 10.7398 20.7295L11.4881 21.0502ZM14.2592 16.9301C15.4314 15.7579 16.8036 14.8342 18.3793 14.1589L18.0586 13.4107C16.3908 14.1255 14.9313 15.1068 13.6836 16.3545L14.2592 16.9301ZM18.3793 14.1589C19.9486 13.4864 21.6187 13.1493 23.3933 13.1493V12.3352C21.5125 12.3352 19.7329 12.6931 18.0586 13.4107L18.3793 14.1589ZM23.3933 13.1493C25.1945 13.1493 26.8636 13.4867 28.4051 14.158L28.7301 13.4116C27.0795 12.6928 25.299 12.3352 23.3933 12.3352V13.1493ZM28.4073 14.1589C29.983 14.8342 31.3552 15.7579 32.5274 16.9301L33.103 16.3545C31.8553 15.1068 30.3959 14.1255 28.728 13.4107L28.4073 14.1589ZM32.5274 16.9301C33.6995 18.1022 34.6232 19.4745 35.2986 21.0502L36.0468 20.7295C35.332 19.0616 34.3507 17.6021 33.103 16.3545L32.5274 16.9301ZM35.2986 21.0502C35.9711 22.6195 36.3082 24.2895 36.3082 26.0642H37.1223C37.1223 24.1833 36.7644 22.4038 36.0468 20.7295L35.2986 21.0502ZM36.3082 26.0642C36.3082 27.8654 35.9708 29.5482 35.2986 31.1168L36.0468 31.4375C36.7647 29.7625 37.1223 27.97 37.1223 26.0642H36.3082ZM35.2995 31.1146C34.6244 32.6648 33.7006 34.025 32.5274 35.1983L33.103 35.7739C34.3496 34.5273 35.3308 33.0816 36.0459 31.4396L35.2995 31.1146ZM32.5274 35.1983C31.3552 36.3704 29.983 37.2941 28.4073 37.9694L28.728 38.7177C30.3959 38.0029 31.8553 37.0216 33.103 35.7739L32.5274 35.1983ZM28.4051 37.9704C26.8636 38.6417 25.1945 38.9791 23.3933 38.9791V39.7932C25.299 39.7932 27.0795 39.4355 28.7301 38.7167L28.4051 37.9704ZM23.3933 38.9791C21.6187 38.9791 19.9486 38.642 18.3793 37.9694L18.0586 38.7177C19.7329 39.4352 21.5125 39.7932 23.3933 39.7932V38.9791ZM18.3793 37.9694C16.8036 37.2941 15.4314 36.3704 14.2592 35.1983L13.6836 35.7739C14.9313 37.0216 16.3908 38.0029 18.0586 38.7177L18.3793 37.9694ZM14.2592 35.1983C13.086 34.025 12.1622 32.6648 11.4871 31.1146L10.7407 31.4396C11.4558 33.0816 12.437 34.5273 13.6836 35.7739L14.2592 35.1983ZM11.4881 31.1168C10.8158 29.5482 10.4784 27.8654 10.4784 26.0642H9.66431C9.66431 27.97 10.0219 29.7625 10.7398 31.4375L11.4881 31.1168ZM13.1396 26.0642C13.1396 27.4812 13.4073 28.8346 13.9432 30.1208L14.6946 29.8077C14.2009 28.6226 13.9537 27.3759 13.9537 26.0642H13.1396ZM13.9444 30.1236C14.4786 31.3789 15.2143 32.4896 16.1509 33.453L16.7346 32.8855C15.8692 31.9954 15.189 30.9694 14.6935 29.8049L13.9444 30.1236ZM16.1549 33.457C17.091 34.3932 18.174 35.1416 19.4014 35.7019L19.7395 34.9614C18.5986 34.4405 17.5964 33.7473 16.7305 32.8814L16.1549 33.457ZM19.4111 35.7062C20.6723 36.2429 22.0009 36.511 23.3933 36.511V35.6969C22.1084 35.6969 20.8885 35.4501 19.7299 34.9571L19.4111 35.7062ZM23.3933 36.511C24.8103 36.511 26.1402 36.2433 27.3784 35.7049L27.0538 34.9584C25.9237 35.4497 24.7051 35.6969 23.3933 35.6969V36.511ZM27.3852 35.7019C28.6126 35.1416 29.6956 34.3932 30.6317 33.457L30.0561 32.8814C29.1902 33.7473 28.188 34.4405 27.0471 34.9614L27.3852 35.7019ZM30.6357 33.453C31.5723 32.4896 32.308 31.3789 32.8422 30.1236L32.0931 29.8049C31.5976 30.9694 30.9174 31.9954 30.052 32.8855L30.6357 33.453ZM32.8434 30.1208C33.3793 28.8346 33.647 27.4812 33.647 26.0642H32.8329C32.8329 27.3759 32.5857 28.6226 32.092 29.8077L32.8434 30.1208ZM33.647 26.0642C33.647 24.6471 33.3793 23.3056 32.8422 22.0434L32.0931 22.3621C32.5858 23.5197 32.8329 24.7525 32.8329 26.0642H33.647ZM32.8434 22.0462C32.3091 20.764 31.5722 19.6504 30.6317 18.7099L30.0561 19.2856C30.9176 20.1471 31.5965 21.1702 32.092 22.3593L32.8434 22.0462ZM30.6357 18.714C29.6978 17.7493 28.6112 16.9981 27.3784 16.4621L27.0538 17.2086C28.1894 17.7023 29.188 18.3927 30.052 19.2815L30.6357 18.714ZM27.3852 16.4651C26.1454 15.8991 24.8131 15.6174 23.3933 15.6174V16.4315C24.7022 16.4315 25.9185 16.6904 27.0471 17.2056L27.3852 16.4651ZM23.3933 15.6174C21.998 15.6174 20.6671 15.8995 19.4044 16.4637L19.7365 17.207C20.8937 16.69 22.1113 16.4315 23.3933 16.4315V15.6174ZM19.4082 16.4621C18.1754 16.9981 17.0888 17.7493 16.1509 18.714L16.7346 19.2815C17.5987 18.3927 18.5972 17.7023 19.7328 17.2086L19.4082 16.4621ZM16.1549 18.7099C15.2144 19.6504 14.4775 20.764 13.9432 22.0462L14.6946 22.3593C15.1901 21.1702 15.869 20.1471 16.7305 19.2856L16.1549 18.7099ZM13.9444 22.0434C13.4073 23.3056 13.1396 24.6471 13.1396 26.0642H13.9537C13.9537 24.7525 14.2009 23.5197 14.6935 22.3621L13.9444 22.0434Z" fill="white"/>
</svg>
