<svg xmlns="http://www.w3.org/2000/svg" height="20" viewBox="0 96 960 960" width="20"><path fill="white" d="M800 896v80q0 17-11.5 28.5T760 1016q-17 0-28.5-11.5T720 976v-80h-80q-17 0-28.5-11.5T600 856q0-17 11.5-28.5T640 816h80v-80q0-17 11.5-28.5T760 696q17 0 28.5 11.5T800 736v80h80q17 0 28.5 11.5T920 856q0 17-11.5 28.5T880 896h-80Zm-680 0q-17 0-28.5-11.5T80 856V656h-7q-19 0-31-14.5T34 608l40-200q3-14 14-23t25-9h534q14 0 25 9t14 23l40 200q4 19-8 33.5T687 656h-7v80q0 17-11.5 28.5T640 776q-17 0-28.5-11.5T600 736v-80H440v200q0 17-11.5 28.5T400 896H120Zm40-80h200V656H160v160Zm-38-240h516-516Zm-2-240q-17 0-28.5-11.5T80 296q0-17 11.5-28.5T120 256h520q17 0 28.5 11.5T680 296q0 17-11.5 28.5T640 336H120Zm2 240h516l-24-120H146l-24 120Z"/></svg>